Coordinates
version=1
nRows=13
nColumns=40
inDegrees=yes

Units are S.I. units (second, meters, Newtons, ...)
Angles are in degrees.

endheader
time	pelvis_tilt	pelvis_list	pelvis_rotation	pelvis_tx	pelvis_ty	pelvis_tz	hip_flexion_r	hip_adduction_r	hip_rotation_r	knee_angle_r	knee_angle_r_beta	ankle_angle_r	subtalar_angle_r	mtp_angle_r	hip_flexion_l	hip_adduction_l	hip_rotation_l	knee_angle_l	knee_angle_l_beta	ankle_angle_l	subtalar_angle_l	mtp_angle_l	lumbar_extension	lumbar_bending	lumbar_rotation	arm_flex_r	arm_add_r	arm_rot_r	elbow_flex_r	pro_sup_r	wrist_flex_r	wrist_dev_r	arm_flex_l	arm_add_l	arm_rot_l	elbow_flex_l	pro_sup_l	wrist_flex_l	wrist_dev_l
      1.64250000	     -5.99171823	     -4.98542741	     -1.59662298	      1.08042704	      0.91924311	      0.47420494	     24.70280169	      1.29682450	    -11.56679005	     20.55618186	     20.55618186	      4.31075327	     -0.29162759	     -0.25919340	      6.77799483	    -11.59677737	     -4.72935796	     39.22301174	     39.22301174	     10.47691975	    -12.39924179	    -13.99969256	    -11.30333422	      5.40551435	      1.25811722	    -13.26452539	    -12.19530528	     -4.43846328	     30.19904255	     46.16657355	      0.00000000	      0.00000000	      9.23836962	    -14.38870519	    -12.55047966	    103.90462338	     48.05986404	      0.00000000	      0.00000000
      1.65457143	     -6.06640643	     -5.17677366	     -1.18361256	      1.07991417	      0.92041577	      0.47683418	     23.89359033	      1.55496716	    -12.18510885	     20.01551432	     20.01551432	      4.71417370	      0.15366240	     -0.48776677	      9.14328987	    -12.07431930	     -3.31612104	     43.49974001	     43.49974001	      8.13830655	    -14.08195487	    -13.58592388	    -11.30925872	      5.56904128	      1.19220337	    -11.94307522	    -12.11887447	     -4.14974169	     31.09885382	     46.11686285	      0.00000000	      0.00000000	      8.20376085	    -13.88940974	    -11.99466108	    101.78974382	     47.99513979	      0.00000000	      0.00000000
      1.66664286	     -6.11383968	     -5.30635082	     -0.80441161	      1.07926639	      0.92152838	      0.47928382	     23.04924922	      1.73299173	    -12.93238208	     19.43654232	     19.43654232	      4.98328130	      0.86106153	     -1.14297221	     11.64344702	    -12.33149548	     -1.85431352	     47.89183939	     47.89183939	      6.51920926	    -15.26815880	    -11.04715115	    -11.31778262	      5.66746290	      1.71632689	    -11.15565153	    -12.26229770	     -3.17927261	     32.82885094	     45.97825524	      0.00000000	      0.00000000	      7.93759346	    -13.17751478	    -10.87243989	     98.36212053	     47.91482345	      0.00000000	      0.00000000
      1.67871429	     -6.16797229	     -5.40756435	     -0.45676984	      1.07840409	      0.92256094	      0.48162879	     22.24046697	      1.90333943	    -13.59558253	     18.87333010	     18.87333010	      5.24675789	      1.54132216	     -1.55675919	     14.21550226	    -12.44716215	     -0.44067062	     52.11553369	     52.11553369	      5.13454959	    -16.13526716	     -8.05657209	    -11.35965446	      5.72182069	      1.80748606	     -9.75932161	    -12.37337392	     -2.75114984	     34.19881654	     45.90241112	      0.00000000	      0.00000000	      7.26238938	    -12.70200146	    -10.20202213	     95.08108626	     47.84199923	      0.00000000	      0.00000000
      1.69078571	     -6.23706768	     -5.53131444	     -0.13261837	      1.07736541	      0.92346510	      0.48386663	     21.42056887	      2.13840125	    -14.14808732	     18.21296188	     18.21296188	      5.38911356	      2.10647975	     -2.02486987	     16.93608097	    -12.49575473	      0.93238571	     56.30957510	     56.30957510	      4.88391214	    -16.20483686	     -3.05321428	    -11.37381942	      5.79485130	      2.30510894	     -8.65844459	    -12.64425770	     -2.22767264	     35.98305792	     45.80325751	      0.00000000	      0.00000000	      6.97799537	    -12.15258930	     -8.94837879	     91.38017383	     47.75125921	      0.00000000	      0.00000000
      1.70285714	     -6.22719184	     -5.73490935	      0.16871648	      1.07621168	      0.92436008	      0.48611172	     20.60051938	      2.48866378	    -14.53700898	     17.69183845	     17.69183845	      5.65321807	      2.41235315	     -2.07418071	     19.37922521	    -12.66228354	      2.06934976	     59.73367765	     59.73367765	      3.26229333	    -16.88554389	     -2.39626293	    -11.59355926	      5.88500320	      2.27988865	     -6.62773712	    -12.77390649	     -2.28191927	     36.91616222	     45.78391687	      0.00000000	      0.00000000	      5.81993957	    -11.62048463	     -8.39996515	     89.47171276	     47.67891608	      0.00000000	      0.00000000
      1.71492857	     -6.30301330	     -5.73898592	      0.48367997	      1.07486286	      0.92524453	      0.48802660	     19.81433720	      2.57098030	    -15.17241653	     17.04148863	     17.04148863	      5.78181745	      3.25730087	     -2.51022646	     22.04235970	    -12.39169435	      3.25873551	     63.10343461	     63.10343461	      3.73310389	    -16.76574495	      2.59641377	    -11.51215876	      5.86786086	      2.94126020	     -5.42296632	    -13.15510128	     -1.78668153	     38.44970917	     45.70316761	      0.00000000	      0.00000000	      6.46065350	    -10.87279443	     -7.54362008	     82.87476993	     47.54548789	      0.00000000	      0.00000000
      1.72700000	     -6.29628630	     -5.85396221	      0.78975670	      1.07338866	      0.92609852	      0.48996091	     18.99930587	      2.83187032	    -15.52924421	     16.46393583	     16.46393583	      5.97266465	      3.60532413	     -2.70897914	     24.50507669	    -12.32483500	      4.20269553	     65.86464112	     65.86464112	      3.74752996	    -16.78519308	      5.14644443	    -11.62745824	      5.89293326	      3.21487964	     -3.75964728	    -13.49708270	     -1.76171151	     40.19271945	     45.64598993	      0.00000000	      0.00000000	      6.25581511	    -10.45774166	     -6.49427046	     78.38056887	     47.43194711	      0.00000000	      0.00000000
      1.73907143	     -6.34589903	     -6.01720613	      1.13126967	      1.07173550	      0.92678096	      0.49183603	     18.25417150	      3.15685340	    -15.83602563	     15.86642538	     15.86642538	      6.17234015	      3.81487282	     -2.69940343	     26.93894259	    -12.30643927	      5.05196827	     68.01944489	     68.01944489	      3.32088092	    -17.05077051	      5.43948528	    -11.73594321	      5.93068657	      2.86753378	     -1.43938903	    -13.62160717	     -1.88922557	     41.43741730	     45.62043372	      0.00000000	      0.00000000	      5.16762927	    -10.37731151	     -6.02918228	     75.42212554	     47.35063758	      0.00000000	      0.00000000
      1.75114286	     -6.29815948	     -6.07038699	      1.41384355	      1.06999056	      0.92763837	      0.49351404	     17.44149913	      3.35938989	    -16.09826667	     15.32209411	     15.32209411	      6.33172680	      4.11321309	     -2.83165620	     29.17420446	    -12.19303691	      5.62145919	     69.71200382	     69.71200382	      3.63434125	    -17.10046130	      6.68510513	    -11.85508761	      5.89443993	      3.43755979	      0.41692515	    -14.10187858	     -1.59065694	     42.73921525	     45.56923241	      0.00000000	      0.00000000	      5.89276720	     -9.48950886	     -5.50118909	     68.84081765	     47.23289031	      0.00000000	      0.00000000
      1.76321429	     -6.31383599	     -6.17488841	      1.75803498	      1.06811069	      0.92833443	      0.49508528	     16.70970649	      3.62408224	    -16.31188330	     14.77296520	     14.77296520	      6.52780899	      4.20676439	     -2.88382552	     31.42359298	    -12.12898470	      6.14091791	     70.85338053	     70.85338053	      3.89752889	    -17.16904855	      7.39589495	    -11.94337518	      5.88978684	      3.73217744	      2.38124398	    -14.52469694	     -1.60440280	     44.45378663	     45.52022459	      0.00000000	      0.00000000	      5.94656272	     -8.99547043	     -4.79424661	     63.62140398	     47.12362451	      0.00000000	      0.00000000
      1.77528571	     -6.33538610	     -6.26079379	      2.09333755	      1.06613241	      0.92893904	      0.49652691	     16.00870486	      3.86859215	    -16.48149113	     14.24895403	     14.24895403	      6.71570150	      4.25164621	     -2.91755341	     33.56692349	    -12.06914272	      6.49175659	     71.45296631	     71.45296631	      4.23283946	    -17.29988858	      7.81984868	    -12.02109450	      5.85368362	      3.97543590	      4.36588278	    -14.94711863	     -1.74267106	     46.31229176	     45.47461177	      0.00000000	      0.00000000	      6.00013718	     -8.53185385	     -4.19704183	     58.37578936	     47.02822558	      0.00000000	      0.00000000
      1.78735714	     -6.35481676	     -6.33500683	      2.45353219	      1.06411893	      0.92944906	      0.49781028	     15.31614885	      4.09931846	    -16.63990120	     13.73415113	     13.73415113	      6.93777696	      4.24696882	     -2.88633004	     35.56902709	    -12.00573252	      6.72491721	     71.48430132	     71.48430132	      4.49002413	    -17.52704142	      7.83027162	    -12.13398623	      5.79828633	      3.42924750	      7.01999954	    -14.99243551	     -1.95263524	     47.86987343	     45.44364108	      0.00000000	      0.00000000	      4.81563210	     -8.57424222	     -3.88424612	     55.48260340	     46.95860287	      0.00000000	      0.00000000
